<svg width="177" height="173" viewBox="0 0 177 173" fill="none" xmlns="http://www.w3.org/2000/svg">
<rect width="177" height="173" fill="#1E1E1E"/>
<rect x="24" y="44" width="129" height="129" rx="5" fill="#DF906F"/>
<path d="M83.217 2.28721C86.4515 0.274634 90.5485 0.274633 93.783 2.28721L171.283 50.5094C179.822 55.8228 176.057 69 166 69H11C0.942655 69 -2.82227 55.8228 5.71699 50.5094L83.217 2.28721Z" fill="#DF906F"/>
<path d="M139 104C139 131.614 116.39 154 88.5 154C60.6096 154 38 131.614 38 104C38 76.3858 60.6096 54 88.5 54C116.39 54 139 76.3858 139 104Z" fill="#D9D9D9"/>
<rect x="121" y="94" width="20" height="65" rx="5" transform="rotate(90 121 94)" fill="#DF906F"/>
<rect x="98" y="137" width="20" height="65" rx="5" transform="rotate(-180 98 137)" fill="#DF906F"/>
</svg>
