<svg width="57" height="53" viewBox="0 0 57 53" fill="none" xmlns="http://www.w3.org/2000/svg">
<g clip-path="url(#clip0_59_6)">
<rect width="57" height="53" fill="white"/>
<rect x="1.5" y="36.5" width="18" height="54" rx="3.5" transform="rotate(-90 1.5 36.5)" stroke="#7F7F7F" stroke-width="3"/>
<path d="M36.7607 22.155L36.3645 22.736L36.5577 23.4121L38.5508 30.3881L39.0448 32.3638L39.0677 32.4555L39.102 32.5437L42.4798 41.2294L41.6033 53.5H15.3369L14 41.9137V41.8389L18.8543 31.6449L18.9629 31.4168L18.9908 31.1656L19.9908 22.1656L20.0496 21.6366L19.7618 21.1889L15.2618 14.1889L15.255 14.1784L15.2481 14.1679L12.6115 10.213L15.1826 -0.5H41.7441L43.9157 11.6609L36.7607 22.155Z" fill="white" stroke="white" stroke-width="3"/>
<path d="M38.635 47.7592C38.7745 49.7822 37.1711 51.5 35.1433 51.5L22 51.5C20.067 51.5 18.5 49.933 18.5 48L18.5 44.615C18.5 40.9283 19.6015 37.3257 21.6631 34.2694L25.0062 29.3135C26.5653 27.0022 26.4768 23.9541 24.7863 21.7372L22.289 18.4623C19.8312 15.2391 18.5 11.2979 18.5 7.24456L18.5 5C18.5 3.067 20.067 1.5 22 1.5L36 1.5C37.933 1.5 39.5 3.06701 39.5 5L39.5 7.3158C39.5 10.7069 38.4551 14.0157 36.5076 16.7919L32.8064 22.0677C31.3729 24.111 31.2361 26.7946 32.4542 28.973L36.0029 35.3193C37.3356 37.7026 38.1241 40.3514 38.312 43.0755L38.635 47.7592Z" fill="white" stroke="#7F7F7F" stroke-width="3"/>
<path d="M22.3106 40.2575C22.4219 39.8123 22.8219 39.5 23.2808 39.5H33.2192C33.6781 39.5 34.0781 39.8123 34.1894 40.2575L34.6469 42.0878C34.882 43.028 35.0484 43.9841 35.1448 44.9484L35.39 47.4005C35.4489 47.9892 34.9866 48.5 34.395 48.5H22.5C21.9477 48.5 21.5 48.0523 21.5 47.5V45.9621C21.5 44.3269 21.7005 42.6978 22.0971 41.1114L22.3106 40.2575Z" fill="#FF845D"/>
<path d="M28.0041 21.5082C28.39 22.28 29.5066 22.2336 29.827 21.4324L29.9512 21.1219C30.647 19.3826 31.5836 17.7496 32.7337 16.2709L33.2447 15.6139C33.7556 14.9571 33.2875 14 32.4554 14H25.0446C24.2125 14 23.7444 14.9571 24.2553 15.6139L25.2842 16.9368C26.0927 17.9764 26.7967 19.0933 27.3857 20.2713L28.0041 21.5082Z" fill="#FF845D"/>
</g>
<defs>
<clipPath id="clip0_59_6">
<rect width="57" height="53" fill="white"/>
</clipPath>
</defs>
</svg>
